<svg xmlns="http://www.w3.org/2000/svg" id="Ebene_1" data-name="Ebene 1" viewBox="0 0 32.53 32.53">
  <defs>
    <style>
      .cls-2{fill:#fff}
    </style>
  </defs>
  <path fill="#ff834a" d="M313.29 384.05A16.27 16.27 0 11297 367.78a16.26 16.26 0 0116.26 16.27" transform="translate(-280.76 -367.78)"/>
  <path d="M299.66 384.43a1.47 1.47 0 01-1.05-.44 1.38 1.38 0 01-.46-1 1.57 1.57 0 011.51-1.51 1.39 1.39 0 011 .46 1.47 1.47 0 01.44 1.05 1.43 1.43 0 01-.44 1 1.45 1.45 0 01-1 .44zm-7.87 4.88a3.59 3.59 0 012.65 1.09 3.65 3.65 0 011.07 2.67 3.66 3.66 0 01-3.72 3.73 3.69 3.69 0 01-2.67-1.07 3.57 3.57 0 01-1.09-2.66 3.63 3.63 0 011.09-2.67 3.67 3.67 0 012.67-1.09zm0 6.36a2.58 2.58 0 002.6-2.6 2.56 2.56 0 00-.76-1.86 2.44 2.44 0 00-1.84-.77 2.5 2.5 0 00-1.86.77 2.54 2.54 0 00-.78 1.86 2.49 2.49 0 00.78 1.85 2.56 2.56 0 001.86.75zm4.32-7.48l1.65 1.72v4.64h-1.47v-3.73l-2.43-2.1a1.19 1.19 0 01-.42-1.06 1.42 1.42 0 01.42-1.05l2.14-2.11a1.19 1.19 0 011.06-.42 1.86 1.86 0 011.19.42l1.44 1.44a3.64 3.64 0 002.67 1.12v1.51a5.14 5.14 0 01-3.79-1.58l-.6-.59zm6.15 1.12a3.72 3.72 0 013.76 3.76 3.57 3.57 0 01-1.09 2.66 3.66 3.66 0 01-2.67 1.07 3.66 3.66 0 01-3.72-3.73 3.65 3.65 0 011.07-2.67 3.59 3.59 0 012.65-1.09zm0 6.36a2.56 2.56 0 001.86-.75 2.49 2.49 0 00.78-1.85 2.54 2.54 0 00-.78-1.86 2.5 2.5 0 00-1.86-.77 2.45 2.45 0 00-1.84.77 2.56 2.56 0 00-.76 1.86 2.58 2.58 0 002.6 2.6zM297.3 370.35a4.7 4.7 0 11-3.31 8l.74-.76a3.5 3.5 0 002.57 1.08 3.56 3.56 0 002.59-1.07 3.62 3.62 0 000-5.16 3.55 3.55 0 00-2.59-1.06 3.64 3.64 0 00-3.65 3.64h1.57l-2.11 2.1v-.07l-2-2h1.57a4.69 4.69 0 014.7-4.7zm-.52 2.62h.79v2.2l1.83 1.1-.39.64-2.23-1.35z" class="cls-2" transform="translate(-280.76 -367.78)"/>
</svg>
