<svg xmlns="http://www.w3.org/2000/svg" id="Ebene_1" data-name="Ebene 1" viewBox="0 0 32.53 32.53">
  <defs>
    <style>
      .cls-2{fill:#fff}
    </style>
  </defs>
  <path fill="#000001" d="M313.29 384.05A16.27 16.27 0 11297 367.78a16.26 16.26 0 0116.26 16.27" transform="translate(-280.76 -367.78)"/>
  <path d="M304.2 381.54l-3.52-2.86a5.06 5.06 0 00-3.86-8.33 5.07 5.07 0 100 10.13 5 5 0 003.14-1.11l3 3.37zm-7.38-10.36a4.24 4.24 0 014.23 4.23 4.77 4.77 0 01-.05.66h-.58l-.72-1.52a.38.38 0 00-.71 0l-.63 1.63-1-4.35a.37.37 0 00-.37-.3.38.38 0 00-.38.32l-.81 5-.84-3.1a.38.38 0 00-.73 0l-.62 2.3h-1a4.2 4.2 0 014.19-4.85m-4 5.6h1.11a.35.35 0 00.33-.24l.35-1.14.89 3.57a.38.38 0 00.75 0l.81-5 .83 3.57a.38.38 0 00.73.05l.76-1.92.43.88a.49.49 0 00.38.23h.62a4.23 4.23 0 01-8 0" class="cls-2" transform="translate(-280.76 -367.78)"/>
  <path d="M299.66 384.7a1.43 1.43 0 01-1.05-.44 1.35 1.35 0 01-.46-1 1.56 1.56 0 011.51-1.51 1.42 1.42 0 011 .45 1.51 1.51 0 01.44 1.06 1.5 1.5 0 01-1.48 1.47zm-7.87 4.89a3.55 3.55 0 012.65 1.09 3.62 3.62 0 011.07 2.67 3.57 3.57 0 01-1.07 2.65 3.61 3.61 0 01-2.65 1.07 3.69 3.69 0 01-2.67-1.07 3.55 3.55 0 01-1.09-2.65 3.72 3.72 0 013.76-3.76zm0 6.36a2.59 2.59 0 002.6-2.6 2.53 2.53 0 00-.76-1.86 2.45 2.45 0 00-1.84-.78 2.66 2.66 0 00-2.64 2.64 2.46 2.46 0 00.78 1.84 2.53 2.53 0 001.86.81zm4.32-7.49l1.65 1.73v4.63h-1.47v-3.72l-2.43-2.1a1.18 1.18 0 01-.42-1.05 1.43 1.43 0 01.42-1.06l2.11-2.11a1.19 1.19 0 011.06-.42 1.86 1.86 0 011.19.42l1.44 1.44a3.65 3.65 0 002.67 1.13v1.51a5.18 5.18 0 01-3.79-1.58l-.6-.6zm6.15 1.13a3.72 3.72 0 013.76 3.76 3.55 3.55 0 01-1.09 2.65 3.66 3.66 0 01-2.67 1.07 3.61 3.61 0 01-2.65-1.07 3.57 3.57 0 01-1.07-2.65 3.62 3.62 0 011.07-2.67 3.55 3.55 0 012.65-1.09zm0 6.36a2.53 2.53 0 001.86-.76 2.46 2.46 0 00.78-1.84 2.66 2.66 0 00-2.64-2.64 2.46 2.46 0 00-1.84.78 2.53 2.53 0 00-.76 1.86 2.59 2.59 0 002.6 2.6z" class="cls-2" transform="translate(-280.76 -367.78)"/>
</svg>
