<?xml version="1.0" encoding="UTF-8" standalone="no"?>
<svg
   xmlns:dc="http://purl.org/dc/elements/1.1/"
   xmlns:cc="http://creativecommons.org/ns#"
   xmlns:rdf="http://www.w3.org/1999/02/22-rdf-syntax-ns#"
   xmlns:svg="http://www.w3.org/2000/svg"
   xmlns="http://www.w3.org/2000/svg"
   xmlns:sodipodi="http://sodipodi.sourceforge.net/DTD/sodipodi-0.dtd"
   xmlns:inkscape="http://www.inkscape.org/namespaces/inkscape"
   width="24"
   height="24"
   fill-rule="evenodd"
   clip-rule="evenodd"
   version="1.1"
   id="svg5254"
   sodipodi:docname="bikeshop2.svg"
   inkscape:version="0.92.1 r15371">
  <metadata
     id="metadata5260">
    <rdf:RDF>
      <cc:Work
         rdf:about="">
        <dc:format>image/svg+xml</dc:format>
        <dc:type
           rdf:resource="http://purl.org/dc/dcmitype/StillImage" />
        <dc:title />
      </cc:Work>
    </rdf:RDF>
  </metadata>
  <defs
     id="defs5258" />
  <sodipodi:namedview
     pagecolor="#ffffff"
     bordercolor="#666666"
     borderopacity="1"
     objecttolerance="10"
     gridtolerance="10"
     guidetolerance="10"
     inkscape:pageopacity="0"
     inkscape:pageshadow="2"
     inkscape:window-width="1920"
     inkscape:window-height="1051"
     id="namedview5256"
     showgrid="false"
     inkscape:zoom="9.8333333"
     inkscape:cx="11.460281"
     inkscape:cy="20.780456"
     inkscape:window-x="1366"
     inkscape:window-y="0"
     inkscape:window-maximized="1"
     inkscape:current-layer="svg5254" />
  <path
     d="m 17.76839,14.293746 c 0.454,-0.136 0.937,-0.209 1.435,-0.209 2.759,0 5,2.24 5,5 0,2.76 -2.241,5 -5,5 -2.76,0 -5,-2.24 -5,-5 0,-1.906 1.068,-3.564 2.639,-4.408 l -0.429,-1.039 -4.494,5.947 h -1.741 c -0.2510002,2.525 -2.3850002,4.5 -4.9750002,4.5 -2.76,0 -4.99999997,-2.24 -4.99999997,-5 0,-2.76 2.23999997,-5 4.99999997,-5 0.635,0 1.244,0.119 1.803,0.336 l 1.181,-2.331 -0.462,-1.005 h -1.022 c -0.277,0 -0.5,-0.224 -0.5,-0.5 0,-0.239 0.189,-0.5 0.5,-0.5 h 2.491 c 0.239,0 0.5,0.189 0.5,0.5 0,0.311 -0.26,0.5 -0.5,0.5 h -0.368 l 0.47,1 H 15.78039 l -0.421,-1 h -1.656 c -0.277,0 -0.5,-0.224 -0.5,-0.5 0,-0.311 0.259,-0.5 0.5,-0.5 h 2.33 z m -11.2170002,1.024 c -0.421,-0.151 -0.875,-0.233 -1.348,-0.233 -2.208,0 -4,1.792 -4,4 0,2.208 1.792,4 4,4 2.038,0 3.722,-1.528 3.969,-3.5 h -3.103 c -0.174,0.299 -0.497,0.5 -0.866,0.5 -0.552,0 -1,-0.448 -1,-1 0,-0.533 0.419,-0.97 0.945,-0.998 z m 10.6750002,0.289 c -1.208,0.689 -2.023,1.989 -2.023,3.478 0,2.208 1.792,4 4,4 2.208,0 4,-1.792 4,-4 0,-2.208 -1.792,-4 -4,-4 -0.364,0 -0.716,0.049 -1.051,0.14 l 1.182,2.869 c 0.491,0.064 0.869,0.484 0.869,0.991 0,0.552 -0.449,1 -1,1 -0.552,0 -1,-0.448 -1,-1 0,-0.229 0.077,-0.44 0.207,-0.609 z m -9.7830002,0.165 -1.403,2.766 0.029,0.047 h 3.103 c -0.147,-1.169 -0.798,-2.183 -1.729,-2.813 m 0.454,-0.898 c 1.254,0.804 2.1260002,2.152 2.2810002,3.711 h 0.997 l -2.4540002,-5.336 z m 7.6830002,-1.789 H 9.7413898 l 2.2120002,4.797 z"
     id="path5252"
     inkscape:connector-curvature="0" />
  <text
     xml:space="preserve"
     style="font-style:normal;font-weight:normal;font-size:9.17953587px;line-height:1.25;font-family:sans-serif;letter-spacing:0px;word-spacing:0px;fill:#000000;fill-opacity:1;stroke:none;stroke-width:0.2294884"
     x="0.26886508"
     y="7.5521984"
     id="text5807"
     transform="scale(0.88096664,1.1351168)"><tspan
       sodipodi:role="line"
       id="tspan5805"
       x="0.26886508"
       y="7.5521984"
       style="stroke-width:0.2294884">SHOP</tspan></text>
</svg>
