<?xml version="1.0" encoding="UTF-8" standalone="no"?>
<svg
   xmlns:dc="http://purl.org/dc/elements/1.1/"
   xmlns:cc="http://creativecommons.org/ns#"
   xmlns:rdf="http://www.w3.org/1999/02/22-rdf-syntax-ns#"
   xmlns:svg="http://www.w3.org/2000/svg"
   xmlns="http://www.w3.org/2000/svg"
   xmlns:sodipodi="http://sodipodi.sourceforge.net/DTD/sodipodi-0.dtd"
   xmlns:inkscape="http://www.inkscape.org/namespaces/inkscape"
   width="24"
   height="24"
   viewBox="0 0 24 24"
   version="1.1"
   id="svg4535"
   sodipodi:docname="bikeshop.svg"
   inkscape:version="0.92.1 r15371">
  <metadata
     id="metadata4541">
    <rdf:RDF>
      <cc:Work
         rdf:about="">
        <dc:format>image/svg+xml</dc:format>
        <dc:type
           rdf:resource="http://purl.org/dc/dcmitype/StillImage" />
        <dc:title></dc:title>
      </cc:Work>
    </rdf:RDF>
  </metadata>
  <defs
     id="defs4539" />
  <sodipodi:namedview
     pagecolor="#ffffff"
     bordercolor="#666666"
     borderopacity="1"
     objecttolerance="10"
     gridtolerance="10"
     guidetolerance="10"
     inkscape:pageopacity="0"
     inkscape:pageshadow="2"
     inkscape:window-width="1920"
     inkscape:window-height="1051"
     id="namedview4537"
     showgrid="false"
     inkscape:zoom="13.906433"
     inkscape:cx="12.262961"
     inkscape:cy="9.5277827"
     inkscape:window-x="1366"
     inkscape:window-y="0"
     inkscape:window-maximized="1"
     inkscape:current-layer="layer1" />
  <path
     d="M 9.939,0 9,4.971 V 6.069 C 9,7.135 8.067,8 7,8 5.933,8 5,7.135 5,6.068 V 4.971 L 7.996,0 Z M 6.887,0 4,4.971 V 6.069 C 4,7.135 3.067,8 2,8 0.933,8 0,7.135 0,6.068 V 4.971 L 4.874,0 Z M 24,6.068 C 24,7.135 23.067,8 22,8 20.933,8 20,7.067 20,6 V 4.902 L 17.113,0 h 2.014 L 24,4.971 Z M 14,4.9 V 5.998 C 14,7.064 13.067,8 12,8 10.933,8 10,7.067 10,6 V 4.902 L 11.047,0 h 1.905 z M 16.004,0 18.997,5.002 V 6.1 C 18.998,7.167 18.067,8 17,8 15.933,8 15,7.067 15,6 V 4.902 L 14.061,0 Z M 21,12 V 22 H 3 V 12 Z m 2,-2 H 1 v 14 h 22 z"
     id="path4533"
     inkscape:connector-curvature="0"
     sodipodi:nodetypes="ccssscccccssscccsssccccscssscccccccssccccccccccccc" />
  <g
     inkscape:groupmode="layer"
     id="layer1"
     inkscape:label="bike">
    <path
       inkscape:connector-curvature="0"
       d="m 15.685198,15.171549 c 0.310491,-0.09364 0.640908,-0.144208 0.981685,-0.144842 1.887943,-0.0035 3.424279,1.526437 3.427791,3.415067 0.0035,1.888629 -1.527121,3.424282 -3.415066,3.427794 -1.888629,0.0035 -3.424279,-1.526438 -3.427792,-3.415069 -0.0025,-1.304248 0.726281,-2.440152 1.800219,-3.01969 l -0.29488,-0.710428 -3.067611,4.075169 -1.191342,0.0021 c -0.168542,1.728143 -1.6262958,3.082324 -3.398596,3.085618 -1.8886288,0.0035 -3.4242806,-1.526436 -3.4277922,-3.415066 -0.00351,-1.888629 1.5264379,-3.42428 3.4150652,-3.427792 0.4345231,-8.21e-4 0.8514027,0.07985 1.2341964,0.227624 l 0.8051734,-1.596539 -0.3174174,-0.687119 -0.6993408,0.0013 c -0.1895473,4.1e-4 -0.3424283,-0.152619 -0.3427802,-0.341484 -2.736e-4,-0.163543 0.1286984,-0.342381 0.3415077,-0.342779 l 1.7045569,-0.0031 c 0.163544,-2.74e-4 0.342382,0.128698 0.342779,0.341507 3.76e-4,0.212813 -0.177279,0.342474 -0.341508,0.34278 l -0.251816,4.74e-4 0.322886,0.683687 4.436909,-0.0083 -0.289357,-0.68375 -1.133175,0.0021 c -0.189548,3.86e-4 -0.342429,-0.152645 -0.342781,-0.341506 -3.75e-4,-0.212814 0.176595,-0.342474 0.341506,-0.34278 l 1.594387,-0.003 z M 8.0108664,15.886532 C 7.7225902,15.783747 7.4118206,15.728209 7.0881517,15.72881 5.57725,15.73161 4.3532898,16.96014 4.3561005,18.471045 c 0.00283,1.510903 1.2313299,2.734863 2.7422329,2.732053 1.3945743,-0.0026 2.5449676,-1.050327 2.7114766,-2.400053 l -2.1233394,0.0039 C 7.5677885,19.011778 7.3470173,19.14973 7.0945158,19.1502 6.71679,19.150885 6.4096602,18.844913 6.4089579,18.467187 6.4083014,18.102462 6.6944394,17.802895 7.0543372,17.783067 Z m 7.3051196,0.184175 c -0.825741,0.47301 -1.381779,1.363618 -1.379885,2.382519 0.0028,1.510905 1.231332,2.734865 2.742234,2.732055 1.510903,-0.0028 2.734863,-1.23133 2.732052,-2.742235 -0.0028,-1.510904 -1.231329,-2.734863 -2.742233,-2.732054 -0.249079,4.23e-4 -0.489885,0.03444 -0.719006,0.09714 l 0.812476,1.961711 c 0.336066,0.04318 0.595262,0.330091 0.595907,0.677023 6.84e-4,0.377725 -0.305972,0.684858 -0.683013,0.685559 -0.377726,6.84e-4 -0.684857,-0.305289 -0.685559,-0.683014 -2.49e-4,-0.156701 0.05213,-0.301184 0.140872,-0.416993 z m -6.694159,0.125355 -0.9565329,1.894521 0.01991,0.03212 2.1233399,-0.0039 C 9.706473,17.319054 9.259706,16.626017 8.6218337,16.196102 m 0.309523,-0.615067 c 0.8591173,0.548569 1.4575313,1.469878 1.5655783,2.536484 l 0.682235,-0.0013 -1.686029,-3.648226 z m 5.2550913,-1.233964 -3.995544,0.0074 1.519744,3.279704 z"
       id="path4591"
       style="stroke-width:0.68428701" />
  </g>
</svg>
