<?xml version="1.0" encoding="UTF-8" standalone="no"?>
<svg
   xmlns:dc="http://purl.org/dc/elements/1.1/"
   xmlns:cc="http://creativecommons.org/ns#"
   xmlns:rdf="http://www.w3.org/1999/02/22-rdf-syntax-ns#"
   xmlns:svg="http://www.w3.org/2000/svg"
   xmlns="http://www.w3.org/2000/svg"
   xmlns:sodipodi="http://sodipodi.sourceforge.net/DTD/sodipodi-0.dtd"
   xmlns:inkscape="http://www.inkscape.org/namespaces/inkscape"
   width="32"
   height="24"
   version="1.1"
   id="svg5254"
   sodipodi:docname="bikemonitoring.svg"
   inkscape:version="0.92.1 r15371"
   style="clip-rule:evenodd;fill-rule:evenodd">
  <metadata
     id="metadata5260">
    <rdf:RDF>
      <cc:Work
         rdf:about="">
        <dc:format>image/svg+xml</dc:format>
        <dc:type
           rdf:resource="http://purl.org/dc/dcmitype/StillImage" />
        <dc:title></dc:title>
      </cc:Work>
    </rdf:RDF>
  </metadata>
  <defs
     id="defs5258" />
  <sodipodi:namedview
     pagecolor="#ffffff"
     bordercolor="#666666"
     borderopacity="1"
     objecttolerance="10"
     gridtolerance="10"
     guidetolerance="10"
     inkscape:pageopacity="0"
     inkscape:pageshadow="2"
     inkscape:window-width="1920"
     inkscape:window-height="1051"
     id="namedview5256"
     showgrid="false"
     inkscape:zoom="19.666667"
     inkscape:cx="19.567207"
     inkscape:cy="12.347955"
     inkscape:window-x="1366"
     inkscape:window-y="0"
     inkscape:window-maximized="1"
     inkscape:current-layer="layer1" />
  <path
     d="m 17.933245,13.876993 c 0.463893,-0.138964 0.957419,-0.213555 1.466271,-0.213555 2.819124,0 5.108959,2.288814 5.108959,5.108959 0,2.820145 -2.289835,5.108959 -5.108959,5.108959 -2.820145,0 -5.108959,-2.288814 -5.108959,-5.108959 0,-1.947535 1.091274,-3.641666 2.696509,-4.504058 l -0.438349,-1.061642 -4.591932,6.076596 h -1.77894 c -0.2564693,2.580024 -2.4369733,4.598063 -5.083414,4.598063 -2.8201453,0 -5.10895886,-2.288814 -5.10895886,-5.108959 0,-2.820145 2.28881356,-5.108959 5.10895886,-5.108959 0.6488378,0 1.271109,0.121593 1.8422906,0.343322 l 1.206736,-2.381797 -0.4720678,-1.0269 H 6.6271187 c -0.2830364,0 -0.5108959,-0.228882 -0.5108959,-0.510896 0,-0.2442078 0.1931186,-0.5108955 0.5108959,-0.5108955 h 2.5452832 c 0.2442083,0 0.5108959,0.1931186 0.5108959,0.5108955 0,0.317777 -0.2656658,0.510896 -0.5108959,0.510896 H 8.7963826 l 0.4802421,1.021792 h 6.6252983 l -0.430174,-1.021792 h -1.692088 c -0.283036,0 -0.510895,-0.228882 -0.510895,-0.510896 0,-0.3177769 0.264644,-0.5108955 0.510895,-0.5108955 h 2.380775 z M 6.4718063,14.923307 C 6.041632,14.769017 5.5777385,14.68523 5.094431,14.68523 c -2.2561162,0 -4.0871671,1.831051 -4.0871671,4.087167 0,2.256116 1.8310509,4.087167 4.0871671,4.087167 2.0824116,0 3.803109,-1.561298 4.0554915,-3.576271 H 5.9793027 c -0.1777918,0.305516 -0.5078305,0.510896 -0.8848717,0.510896 -0.5640291,0 -1.0217918,-0.457763 -1.0217918,-1.021792 0,-0.544615 0.4281308,-0.991138 0.9655933,-1.019748 z m 10.9076277,0.295298 c -1.234325,0.704015 -2.067085,2.032344 -2.067085,3.553792 0,2.256116 1.831051,4.087167 4.087167,4.087167 2.256116,0 4.087167,-1.831051 4.087167,-4.087167 0,-2.256116 -1.831051,-4.087167 -4.087167,-4.087167 -0.371932,0 -0.731603,0.05007 -1.073903,0.143051 l 1.207758,2.93152 c 0.5017,0.06539 0.887937,0.494547 0.887937,1.012596 0,0.564029 -0.458785,1.021792 -1.021792,1.021792 -0.564029,0 -1.021792,-0.457763 -1.021792,-1.021792 0,-0.23399 0.07868,-0.449588 0.211511,-0.622271 z m -9.9961894,0.168596 -1.4335739,2.826276 0.029632,0.04802 H 9.1499225 C 8.9997191,17.067026 8.3345327,16.03093 7.3832446,15.387201 M 7.847138,14.469632 c 1.2813269,0.82152 2.17233,2.198896 2.330707,3.791869 h 1.018727 L 8.6890944,12.80922 Z m 7.850427,-1.827986 H 9.7313225 l 2.2602035,4.901535 z"
     id="path5252"
     inkscape:connector-curvature="0"
     style="stroke-width:1.02179182" />
  <g
     inkscape:groupmode="layer"
     id="layer1"
     inkscape:label="monitor">
    <g
       id="g4522"
       transform="translate(1.1694915,-1.1186441)">
      <path
         style="stroke:#000000;stroke-width:0.32781053;stroke-miterlimit:2;stroke-dasharray:none;stroke-opacity:1"
         sodipodi:nodetypes="ccsssscccsssss"
         inkscape:connector-curvature="0"
         id="path4567"
         d="M 30.582358,14.489094 26.99836,11.267822 c 0.64362,-0.976998 1.367126,-2.6766225 1.367126,-3.9368259 0,-3.4145497 -2.790562,-5.9336856 -6.196071,-5.9336856 -3.405511,0 -5.978109,2.5815991 -5.978109,5.9961488 0,3.4145467 2.603736,6.1210727 6.009247,6.1210727 1.256414,0 2.982062,-0.850616 3.957354,-1.497416 l 3.42831,3.439893 z M 17.287226,7.2997645 c 0.109431,-3.5077943 2.313789,-4.5572561 4.913327,-4.8032278 3.611876,-0.3417605 5.022429,2.352927 5.100153,4.8344594 0.09341,2.9824619 -2.188341,5.0655219 -5.131291,5.0843099 -3.004171,0.01918 -4.980581,-1.961628 -4.882189,-5.1155415 z" />
      <path
         style="stroke-width:0.86132514"
         sodipodi:nodetypes="ccccccscccccccscccccccsccccc"
         inkscape:connector-curvature="0"
         id="path5170"
         d="m 21.689136,11.375946 0.928508,-5.6545996 0.947458,4.0706224 c 0.09388,0.4168812 0.673556,0.4642542 0.831179,0.062015 l 0.858741,-2.1946564 0.493539,1.0034437 c 0,0 0.161068,0.2704561 0.42894,0.2704561 h 1.186906 V 8.0719026 H 26.460016 L 25.636589,6.3389165 c -0.154177,-0.35745 -0.664082,-0.349698 -0.8062,0.013781 L 24.102569,8.2131597 22.980262,3.2441751 C 22.929442,3.015924 22.743398,2.9039517 22.558213,2.9039517 c -0.197244,0 -0.393626,0.1248921 -0.432385,0.3660632 L 21.194735,9.010747 20.242971,5.4758687 C 20.137028,5.0538194 19.541852,5.028841 19.405763,5.4483063 l -0.707148,2.6235963 -1.368106,-0.050847 0.152542,0.8475439 1.558371,0.050847 c 0.157539,0.00514 0.328165,-0.1266148 0.372954,-0.278208 l 0.401378,-1.2971556 1.022393,4.0680381 c 0.114556,0.459087 0.775192,0.42894 0.850989,-0.03618 z" />
    </g>
  </g>
</svg>
