<svg xmlns="http://www.w3.org/2000/svg" data-name="Ebene 1" viewBox="0 0 32.53 32.53">
  <path fill="#000001" d="M32.53 16.27A16.27 16.27 0 1116.24 0 16.26 16.26 0 0132.5 16.27"/>
  <text fill="#fff" font-family="Interstate-Bold" font-size="7.1" font-weight="700" transform="translate(6.63 11.52)">
    SHOP
  </text>
  <path fill="#fff" d="M18.9 16.66a1.47 1.47 0 01-1.05-.44 1.38 1.38 0 01-.46-1 1.57 1.57 0 011.51-1.51 1.39 1.39 0 011 .46 1.47 1.47 0 01.44 1 1.43 1.43 0 01-.44 1 1.45 1.45 0 01-1 .49zm-7.87 4.88a3.59 3.59 0 012.65 1.09 3.65 3.65 0 011.07 2.67 3.66 3.66 0 01-3.72 3.73 3.69 3.69 0 01-2.67-1.07 3.57 3.57 0 01-1.09-2.66 3.63 3.63 0 011.09-2.67 3.67 3.67 0 012.67-1.09zm0 6.36a2.58 2.58 0 002.6-2.6 2.56 2.56 0 00-.76-1.86 2.44 2.44 0 00-1.84-.77 2.5 2.5 0 00-1.86.77 2.54 2.54 0 00-.78 1.86 2.49 2.49 0 00.78 1.85 2.56 2.56 0 001.86.75zm4.32-7.48L17 22.14v4.64h-1.47v-3.73l-2.43-2.1a1.19 1.19 0 01-.42-1.06 1.42 1.42 0 01.42-1.05l2.11-2.11a1.19 1.19 0 011.06-.42 1.86 1.86 0 011.19.42l1.44 1.44a3.64 3.64 0 002.67 1.12v1.51a5.14 5.14 0 01-3.79-1.58l-.6-.59zm6.15 1.12a3.72 3.72 0 013.76 3.76 3.57 3.57 0 01-1.09 2.66 3.66 3.66 0 01-2.67 1.07 3.66 3.66 0 01-3.72-3.73 3.65 3.65 0 011.07-2.67 3.59 3.59 0 012.65-1.09zm0 6.36a2.56 2.56 0 001.86-.75 2.49 2.49 0 00.78-1.85 2.54 2.54 0 00-.78-1.86 2.5 2.5 0 00-1.86-.77 2.45 2.45 0 00-1.84.77 2.56 2.56 0 00-.76 1.86 2.58 2.58 0 002.6 2.6z"/>
</svg>
