<?xml version="1.0" encoding="UTF-8" standalone="no"?>
<svg
   xmlns:dc="http://purl.org/dc/elements/1.1/"
   xmlns:cc="http://creativecommons.org/ns#"
   xmlns:rdf="http://www.w3.org/1999/02/22-rdf-syntax-ns#"
   xmlns:svg="http://www.w3.org/2000/svg"
   xmlns="http://www.w3.org/2000/svg"
   xmlns:sodipodi="http://sodipodi.sourceforge.net/DTD/sodipodi-0.dtd"
   xmlns:inkscape="http://www.inkscape.org/namespaces/inkscape"
   width="24"
   height="24"
   fill-rule="evenodd"
   clip-rule="evenodd"
   version="1.1"
   id="svg4"
   sodipodi:docname="bike_park_covered.svg"
   inkscape:version="0.92.1 r15371">
  <metadata
     id="metadata10">
    <rdf:RDF>
      <cc:Work
         rdf:about="">
        <dc:format>image/svg+xml</dc:format>
        <dc:type
           rdf:resource="http://purl.org/dc/dcmitype/StillImage" />
        <dc:title></dc:title>
      </cc:Work>
    </rdf:RDF>
  </metadata>
  <defs
     id="defs8" />
  <sodipodi:namedview
     pagecolor="#ffffff"
     bordercolor="#666666"
     borderopacity="1"
     objecttolerance="10"
     gridtolerance="10"
     guidetolerance="10"
     inkscape:pageopacity="0"
     inkscape:pageshadow="2"
     inkscape:window-width="1741"
     inkscape:window-height="894"
     id="namedview6"
     showgrid="false"
     inkscape:zoom="19.666667"
     inkscape:cx="11.240751"
     inkscape:cy="12.255327"
     inkscape:window-x="0"
     inkscape:window-y="0"
     inkscape:window-maximized="0"
     inkscape:current-layer="svg4" />
  <path
     d="m 17.565,12.61578 c 0.454,-0.136 0.937,-0.209 1.435,-0.209 2.759,0 5,2.24 5,5 0,2.76 -2.241,5 -5,5 -2.76,0 -5,-2.24 -5,-5 0,-1.906 1.068,-3.564 2.639,-4.408 l -0.429,-1.039 -4.494,5.947 H 10.728814 9.975 c -0.251,2.525 -2.385,4.5 -4.975,4.5 -2.76,0 -5,-2.24 -5,-5 0,-2.76 2.24,-5 5,-5 0.635,0 1.244,0.119 1.803,0.336 L 7.984,10.41178 7.522,9.4067797 H 6.5 c -0.277,0 -0.5,-0.224 -0.5,-0.5 0,-0.239 0.189,-0.5 0.5,-0.5 h 2.491 c 0.239,0 0.5,0.189 0.5,0.5 0,0.311 -0.26,0.5 -0.5,0.5 H 8.623 l 0.47,1.0000003 h 6.484 L 15.156,9.4067797 H 13.5 c -0.277,0 -0.5,-0.224 -0.5,-0.5 0,-0.311 0.259,-0.5 0.5,-0.5 h 2.33 z m -11.217,1.024 c -0.421,-0.151 -0.875,-0.233 -1.348,-0.233 -2.208,0 -4,1.792 -4,4 0,2.208 1.792,4 4,4 2.038,0 3.722,-1.528 3.969,-3.5 H 5.866 c -0.174,0.299 -0.497,0.5 -0.866,0.5 -0.552,0 -1,-0.448 -1,-1 0,-0.533 0.419,-0.97 0.945,-0.998 z m 10.675,0.289 c -1.208,0.689 -2.023,1.989 -2.023,3.478 0,2.208 1.792,4 4,4 2.208,0 4,-1.792 4,-4 0,-2.208 -1.792,-4 -4,-4 -0.364,0 -0.716,0.049 -1.051,0.14 l 1.182,2.869 c 0.491,0.064 0.869,0.484 0.869,0.991 0,0.552 -0.449,1 -1,1 -0.552,0 -1,-0.448 -1,-1 0,-0.229 0.077,-0.44 0.207,-0.609 z m -9.783,0.165 -1.403,2.766 0.029,0.047 h 3.103 c -0.147,-1.169 -0.798,-2.183 -1.729,-2.813 m 0.454,-0.898 c 1.254,0.804 2.126,2.152 2.281,3.711 h 0.997 l -2.454,-5.336 z m 7.683,-1.789 H 9.538 l 2.212,4.797 z"
     id="path2"
     inkscape:connector-curvature="0"
     sodipodi:nodetypes="csssscccccssscccssssssccccssscccsssccsscccssssccssscccccccccccccccc" />
  <rect
     style="fill:#000000;fill-opacity:1;stroke:#000000;stroke-width:0.53243852;stroke-linejoin:round;stroke-miterlimit:4;stroke-dasharray:none;stroke-opacity:1"
     id="rect4487"
     width="12.379992"
     height="1.1981734"
     x="-2.062283"
     y="7.1369224"
     ry="0.57512325"
     transform="matrix(0.94748758,-0.31979257,0.35173352,0.93610017,0,0)" />
  <rect
     style="fill:#000000;fill-opacity:1;stroke:#000000;stroke-width:0.53243852;stroke-linejoin:round;stroke-miterlimit:4;stroke-dasharray:none;stroke-opacity:1"
     id="rect4487-3"
     width="12.379992"
     height="1.1981734"
     x="12.160039"
     y="-0.67022353"
     ry="0.57512325"
     transform="matrix(0.94374477,0.33067477,-0.29848672,0.95441379,0,0)" />
</svg>
