<?xml version="1.0" encoding="UTF-8" standalone="no"?>
<!-- Created with Inkscape (http://www.inkscape.org/) -->

<svg
   xmlns:dc="http://purl.org/dc/elements/1.1/"
   xmlns:cc="http://creativecommons.org/ns#"
   xmlns:rdf="http://www.w3.org/1999/02/22-rdf-syntax-ns#"
   xmlns:svg="http://www.w3.org/2000/svg"
   xmlns="http://www.w3.org/2000/svg"
   xmlns:sodipodi="http://sodipodi.sourceforge.net/DTD/sodipodi-0.dtd"
   xmlns:inkscape="http://www.inkscape.org/namespaces/inkscape"
   width="210mm"
   height="297mm"
   viewBox="0 0 210 297"
   version="1.1"
   id="svg5732"
   inkscape:version="0.92.1 r15371"
   sodipodi:docname="coveredbikepark2.svg">
  <defs
     id="defs5726" />
  <sodipodi:namedview
     id="base"
     pagecolor="#ffffff"
     bordercolor="#666666"
     borderopacity="1.0"
     inkscape:pageopacity="0.0"
     inkscape:pageshadow="2"
     inkscape:zoom="0.35"
     inkscape:cx="-140"
     inkscape:cy="560"
     inkscape:document-units="mm"
     inkscape:current-layer="layer1"
     showgrid="false"
     inkscape:window-width="1920"
     inkscape:window-height="1051"
     inkscape:window-x="1366"
     inkscape:window-y="0"
     inkscape:window-maximized="1" />
  <metadata
     id="metadata5729">
    <rdf:RDF>
      <cc:Work
         rdf:about="">
        <dc:format>image/svg+xml</dc:format>
        <dc:type
           rdf:resource="http://purl.org/dc/dcmitype/StillImage" />
        <dc:title></dc:title>
      </cc:Work>
    </rdf:RDF>
  </metadata>
  <g
     inkscape:label="Layer 1"
     inkscape:groupmode="layer"
     id="layer1">
    <path
       d="m 105.0774,55.386905 c 55.32964,0 100.24998,44.920415 100.24998,100.249985 0,55.32959 -44.92034,100.25001 -100.24998,100.25001 -55.329658,0 -100.2500195,-44.92042 -100.2500195,-100.25001 0,-55.32957 44.9203615,-100.249985 100.2500195,-100.249985 z M 87.124293,112.61301 H 72.253867 c -0.960796,0 -1.871267,0.37694 -2.548014,1.05263 -0.685109,0.68571 -1.061046,1.59597 -1.061046,2.55637 0,1.98896 1.620641,3.61722 3.608999,3.61722 h 5.705916 l 2.456104,5.35515 -6.658269,13.13275 c -3.333312,-1.22906 -6.850423,-1.8466 -10.451063,-1.8466 -16.800236,0 -30.459277,13.66748 -30.459277,30.46778 0,16.79188 13.659041,30.45916 30.459277,30.45916 15.538753,0 28.445932,-11.50369 30.250437,-26.85016 h 10.158679 l 26.31561,-34.87036 1.93824,4.67826 c -9.63234,5.40528 -15.58051,15.53053 -15.58051,26.5831 0,16.79188 13.65906,30.45916 30.45929,30.45916 16.80024,0 30.45929,-13.66728 30.45929,-30.45916 0,-16.8003 -13.65905,-30.46778 -30.45929,-30.46778 -2.78194,0 -5.5388,0.37694 -8.18707,1.11879 L 128.36882,112.61201 H 114.0247 c -2.02171,0 -3.609,1.67016 -3.609,3.609 0,1.98895 1.62063,3.61721 3.609,3.61721 h 9.46528 l 1.97993,4.71175 H 88.135135 l -2.222203,-4.71175 h 1.21142 c 2.030063,0 3.608997,-1.65412 3.608997,-3.61721 0,-1.99698 -1.612423,-3.609 -3.608997,-3.609 z m -23.817739,77.57665 c -12.815298,0 -23.241298,-10.426 -23.241298,-23.24116 0,-12.81535 10.426,-23.24977 23.241298,-23.24977 2.439424,0 4.853765,0.38496 7.159514,1.12881 l -7.886326,15.56382 c -3.316611,0.3589 -5.872986,3.17471 -5.872986,6.55815 0,3.63407 2.965736,6.59144 6.599798,6.59144 2.222202,0 4.302389,-1.13684 5.522111,-2.98244 h 17.443496 c -1.754365,11.24465 -11.503683,19.63216 -22.965607,19.63216 z m 83.541666,0 c -12.81529,0 -23.24129,-10.426 -23.24129,-23.24116 0,-8.09518 4.25227,-15.63077 11.14447,-19.8495 l 6.65827,16.12341 c -0.75188,1.10276 -1.15288,2.38094 -1.15288,3.72609 0,3.63407 2.95737,6.59145 6.59143,6.59145 3.63407,0 6.59142,-2.95738 6.59142,-6.59145 0,-3.1747 -2.27232,-5.8981 -5.35499,-6.48296 l -6.64992,-16.1234 c 1.75437,-0.42707 3.57557,-0.64362 5.41349,-0.64362 12.81528,0 23.24128,10.43443 23.24128,23.24979 0,12.81515 -10.426,23.24115 -23.24128,23.24115 z M 97.967992,163.33109 H 93.55699 c -1.0442,-8.88055 -5.881327,-16.74176 -13.358308,-21.72919 l 4.076823,-8.03664 z m -11.695831,0 h -17.08428 l 7.71925,-15.238 c 5.029219,3.6507 8.404303,9.13939 9.36503,15.238 z m 37.710709,-31.56211 -20.2672,26.78359 -12.347477,-26.78359 z"
       id="path5158"
       inkscape:connector-curvature="0"
       style="clip-rule:evenodd;fill-rule:evenodd;stroke-width:8.35416698" />
  </g>
</svg>
