<svg xmlns="http://www.w3.org/2000/svg" id="Ebene_1" data-name="Ebene 1" viewBox="0 0 32.69 32.53">
  <defs>
    <clipPath id="clip-path" transform="translate(-287.7 -367.78)">
      <path fill="none" d="M320.23 384.05A16.27 16.27 0 11304 367.78a16.26 16.26 0 0116.26 16.27"/>
    </clipPath>
    <style>
      .cls-3{fill:#fff}
    </style>
  </defs>
  <path fill="#005ab4" d="M320.23 384.05A16.27 16.27 0 11304 367.78a16.26 16.26 0 0116.26 16.27" transform="translate(-287.7 -367.78)"/>
  <path d="M303.43 375.35a3 3 0 00-3.25-3.07h-3.82v9.84h1.93v-3.7h1.89a3 3 0 003.25-3.07m-1.92 0a1.3 1.3 0 01-1.43 1.34h-1.79V374h1.79a1.32 1.32 0 011.43 1.36" class="cls-3" transform="translate(-287.7 -367.78)"/>
  <g clip-path="url(#clip-path)">
    <path d="M301.78 388.57a3.65 3.65 0 000 7.3 3.64 3.64 0 002.51-6.29l.51-.77a5.35 5.35 0 011.6 2.83l.08.43c.16.79.55 1.73 1.54 1.69l5.22-.5a3.61 3.61 0 003.49 2.61 3.65 3.65 0 00.11-7.29l-.34-1c2.23-1 3.63-2.06 3.88-3.06.07-.33-.28-.61-.61-.61 0 0-2.26.63-3 .72a1.71 1.71 0 00-1.42.75s-.37.64-.45.75c-.47.63-4.38 1.08-5.94-.09a8 8 0 01-1.17-1.49 1.31 1.31 0 00-.82-.4c-.4 0-1.62.06-1.62.06l-.5-1.26s.62-.35.79-.43c.42-.21.6-.27.6-.61a.6.6 0 00-.6-.6l-1.23.36c-1.75.49-3.6 1.58-3.81 3.82v1.22a.6.6 0 00.61.6 5.26 5.26 0 012.65.72l-.55.83a3.72 3.72 0 00-1.5-.33m15 4.23c.69-.08 1.21-.38 1.2-.88 0-.67-.53-.92-1.2-.92h-2.41c.57 0 1.63-1.07 1.63-1.07a2.29 2.29 0 01.78-.14 2.43 2.43 0 010 4.86 2.33 2.33 0 01-2.29-1.53l2.29-.32m-15 1.85a2.43 2.43 0 010-4.86 2.18 2.18 0 01.8.14l-1.3 1.95a.6.6 0 00.17.84.61.61 0 00.84-.16l1.3-1.95a2.4 2.4 0 01.63 1.61 2.47 2.47 0 01-2.44 2.43" class="cls-3" transform="translate(-287.7 -367.78)"/>
  </g>
</svg>
