<svg xmlns="http://www.w3.org/2000/svg" data-name="Ebene 1" viewBox="0 0 32.53 32.53">
  <path fill="#181716" d="M32.53 16.27A16.27 16.27 0 1116.26 0a16.27 16.27 0 0116.27 16.27"/>
  <path fill="#fff" d="M25.14 22a.5.5 0 01.25.52.86.86 0 01-.33.64l-1.9 1.9a.72.72 0 01-1.16 0l-7.53-7.52a4.88 4.88 0 01-3 .25 5.41 5.41 0 01-2.74-1.49 5.54 5.54 0 01-1.55-2.95 4.76 4.76 0 01.47-3.18l3.64 3.57 2.49-2.49-3.53-3.52a5.28 5.28 0 013.18-.43 5.22 5.22 0 012.95 1.51 5.41 5.41 0 011.49 2.74 5 5 0 01-.25 3z"/>
</svg>
