<?xml version="1.0" encoding="UTF-8" standalone="no"?>
<svg
   xmlns:dc="http://purl.org/dc/elements/1.1/"
   xmlns:cc="http://creativecommons.org/ns#"
   xmlns:rdf="http://www.w3.org/1999/02/22-rdf-syntax-ns#"
   xmlns:svg="http://www.w3.org/2000/svg"
   xmlns="http://www.w3.org/2000/svg"
   xmlns:sodipodi="http://sodipodi.sourceforge.net/DTD/sodipodi-0.dtd"
   xmlns:inkscape="http://www.inkscape.org/namespaces/inkscape"
   width="24"
   height="24"
   viewBox="0 0 24 24"
   version="1.1"
   id="svg3751"
   sodipodi:docname="taxi3.svg"
   inkscape:version="0.92.1 r15371">
  <metadata
     id="metadata3757">
    <rdf:RDF>
      <cc:Work
         rdf:about="">
        <dc:format>image/svg+xml</dc:format>
        <dc:type
           rdf:resource="http://purl.org/dc/dcmitype/StillImage" />
        <dc:title></dc:title>
      </cc:Work>
    </rdf:RDF>
  </metadata>
  <defs
     id="defs3755" />
  <sodipodi:namedview
     pagecolor="#ffffff"
     bordercolor="#666666"
     borderopacity="1"
     objecttolerance="10"
     gridtolerance="10"
     guidetolerance="10"
     inkscape:pageopacity="0"
     inkscape:pageshadow="2"
     inkscape:window-width="1920"
     inkscape:window-height="1051"
     id="namedview3753"
     showgrid="false"
     inkscape:zoom="27.812867"
     inkscape:cx="9.6256271"
     inkscape:cy="10.994501"
     inkscape:window-x="1366"
     inkscape:window-y="0"
     inkscape:window-maximized="1"
     inkscape:current-layer="layer2"
     inkscape:pagecheckerboard="false" />
  <g
     inkscape:groupmode="layer"
     id="layer2"
     inkscape:label="background"
     sodipodi:insensitive="true"
     style="display:inline">
    <circle
       style="opacity:1;fill:#ffff00;fill-opacity:1;fill-rule:nonzero;stroke:#ffff00;stroke-width:0.1;stroke-miterlimit:4;stroke-dasharray:none;paint-order:markers fill stroke"
       id="path6686"
       cx="12.350398"
       cy="12.440601"
       r="14.831264" />
  </g>
  <path
     d="m 7.3955004,14.111228 c 0,-0.828 -0.672,-1.5 -1.5,-1.5 -0.828,0 -1.5,0.672 -1.5,1.5 0,0.828 0.672,1.5 1.5,1.5 0.828,0 1.5,-0.672 1.5,-1.5 z m 8.9999996,1 c 0,-0.276 -0.224,-0.5 -0.5,-0.5 H 8.8955004 c -0.276,0 -0.5,0.224 -0.5,0.5 0,0.276 0.224,0.5 0.5,0.5 H 15.8955 c 0.276,0 0.5,-0.224 0.5,-0.5 z m 4,-1 c 0,-0.828 -0.672,-1.5 -1.5,-1.5 -0.828,0 -1.5,0.672 -1.5,1.5 0,0.828 0.672,1.5 1.5,1.5 0.828,0 1.5,-0.672 1.5,-1.5 z M 3.0975004,7.6112279 h -2.202 c -0.276,0 -0.5,0.224 -0.5,0.5 v 0.511 c 0,0.793 0.926,0.989 1.616,0.989 z M 22.4155,10.779228 c -0.761,-1.4130001 -1.699,-3.1700001 -2.684,-4.8120001 -0.786,-1.312 -1.37,-1.938 -2.751,-2.187 -1.395,-0.25 -2.681,-0.347 -4.585,-0.347 -1.904,0 -3.1899996,0.097 -4.5849996,0.347 -1.381,0.248 -1.965,0.875 -2.751,2.187 -0.981,1.637 -1.913,3.382 -2.684,4.8120001 -0.687,1.273 -0.98,2.412 -0.98,3.806 0,1.318 0.42,2.415 1,3.817 v 2.209 c 0,0.552 0.448,1 1,1 h 1.5 c 0.552,0 1,-0.448 1,-1 v -1 H 18.8955 v 1 c 0,0.552 0.448,1 1,1 h 1.5 c 0.552,0 1,-0.448 1,-1 v -2.209 c 0.58,-1.403 1,-2.499 1,-3.817 0,-1.394 -0.293,-2.533 -0.98,-3.806 z M 6.7745004,6.9952279 c 0.67,-1.117 0.852,-1.149 1.39,-1.246 1.268,-0.227 2.4549996,-0.316 4.2309996,-0.316 1.776,0 2.963,0.088 4.231,0.316 0.538,0.097 0.72,0.129 1.39,1.246 0.408,0.681 0.81,1.388 1.195,2.081 -1.456,0.22 -4.02,0.535 -6.816,0.535 -3.0479996,0 -5.5169996,-0.336 -6.8049996,-0.555 0.382,-0.686 0.779,-1.386 1.184,-2.061 z M 18.3695,17.611228 H 6.4215004 c -1.671,0 -3.026,-1.354 -3.026,-3.026 0,-1.641 0.506,-2.421 1.184,-3.678 1.041,0.205 3.967,0.704 7.8159996,0.704 3.481,0 6.561,-0.455 7.834,-0.672 0.664,1.231 1.166,2.01 1.166,3.646 0,1.672 -1.355,3.026 -3.026,3.026 z m 5.526,-10.0000001 c 0.276,0 0.5,0.224 0.5,0.5 v 0.511 c 0,0.793 -0.926,0.989 -1.616,0.989 l -1.086,-2 z"
     id="path3749"
     inkscape:connector-curvature="0"
     style="fill:#000000;fill-opacity:1;paint-order:markers fill stroke;stroke-width:0.1;stroke-miterlimit:4;stroke-dasharray:none;fill-rule:nonzero" />
  <rect
     style="fill:#ffff00;stroke:#000000;stroke-width:0.792;stroke-miterlimit:4;stroke-dasharray:none"
     id="rect3767"
     width="7.1270862"
     height="1.3743529"
     x="8.7329235"
     y="1.4524376" />
</svg>
