<?xml version="1.0" encoding="UTF-8" standalone="no"?>
<!-- Generator: Adobe Illustrator 19.0.0, SVG Export Plug-In . SVG Version: 6.00 Build 0)  -->

<svg
   xmlns:dc="http://purl.org/dc/elements/1.1/"
   xmlns:cc="http://creativecommons.org/ns#"
   xmlns:rdf="http://www.w3.org/1999/02/22-rdf-syntax-ns#"
   xmlns:svg="http://www.w3.org/2000/svg"
   xmlns="http://www.w3.org/2000/svg"
   xmlns:sodipodi="http://sodipodi.sourceforge.net/DTD/sodipodi-0.dtd"
   xmlns:inkscape="http://www.inkscape.org/namespaces/inkscape"
   version="1.1"
   id="Layer_1"
   x="0px"
   y="0px"
   viewBox="0 0 32.529999 32.529999"
   xml:space="preserve"
   sodipodi:docname="toilet.svg"
   width="32.529999"
   height="32.529999"
   inkscape:version="0.92.4 (5da689c313, 2019-01-14)"><defs
   id="defs47" />
<g
   id="g12"
   transform="matrix(0.07015526,0,0,0.07015526,0.36250744,0.60935817)">
	<circle
   cx="76.627998"
   cy="45.761002"
   r="35.493999"
   id="circle2" />
	<polygon
   points="451.5,110.764 305.663,110.764 305.663,279.306 324.261,279.306 324.261,444.734 432.902,444.734 432.902,279.306 451.5,279.306 "
   id="polygon4" />
	<circle
   cx="378.582"
   cy="45.761002"
   r="35.493999"
   id="circle6" />
	<polygon
   points="111.628,330.323 149.755,330.323 122.713,171.255 132.713,111.255 20.542,111.255 30.542,171.255 3.5,330.323 41.628,330.323 41.628,444.734 111.628,444.734 "
   id="polygon8" />
	<rect
   x="212.709"
   width="30"
   height="455"
   id="rect10"
   y="0" />
</g>
<g
   id="g14"
   transform="translate(0,-422.47)">
</g>
<g
   id="g16"
   transform="translate(0,-422.47)">
</g>
<g
   id="g18"
   transform="translate(0,-422.47)">
</g>
<g
   id="g20"
   transform="translate(0,-422.47)">
</g>
<g
   id="g22"
   transform="translate(0,-422.47)">
</g>
<g
   id="g24"
   transform="translate(0,-422.47)">
</g>
<g
   id="g26"
   transform="translate(0,-422.47)">
</g>
<g
   id="g28"
   transform="translate(0,-422.47)">
</g>
<g
   id="g30"
   transform="translate(0,-422.47)">
</g>
<g
   id="g32"
   transform="translate(0,-422.47)">
</g>
<g
   id="g34"
   transform="translate(0,-422.47)">
</g>
<g
   id="g36"
   transform="translate(0,-422.47)">
</g>
<g
   id="g38"
   transform="translate(0,-422.47)">
</g>
<g
   id="g40"
   transform="translate(0,-422.47)">
</g>
<g
   id="g42"
   transform="translate(0,-422.47)">
</g>
</svg>