<?xml version="1.0" encoding="UTF-8" standalone="no"?>
<!-- Generator: Adobe Illustrator 19.0.0, SVG Export Plug-In . SVG Version: 6.00 Build 0)  -->

<svg
   xmlns:dc="http://purl.org/dc/elements/1.1/"
   xmlns:cc="http://creativecommons.org/ns#"
   xmlns:rdf="http://www.w3.org/1999/02/22-rdf-syntax-ns#"
   xmlns:svg="http://www.w3.org/2000/svg"
   xmlns="http://www.w3.org/2000/svg"
   xmlns:sodipodi="http://sodipodi.sourceforge.net/DTD/sodipodi-0.dtd"
   xmlns:inkscape="http://www.inkscape.org/namespaces/inkscape"
   version="1.1"
   id="Layer_1"
   x="0px"
   y="0px"
   viewBox="0 0 32.529999 32.529999"
   xml:space="preserve"
   sodipodi:docname="toilet.svg"
   width="32.529999"
   height="32.529999"
   inkscape:version="0.92.4 (5da689c313, 2019-01-14)"><metadata
   id="metadata29"><rdf:RDF><cc:Work
       rdf:about=""><dc:format>image/svg+xml</dc:format><dc:type
         rdf:resource="http://purl.org/dc/dcmitype/StillImage" /><dc:title /></cc:Work></rdf:RDF></metadata><sodipodi:namedview
   pagecolor="#ffffff"
   bordercolor="#666666"
   borderopacity="1"
   objecttolerance="10"
   gridtolerance="10"
   guidetolerance="10"
   inkscape:pageopacity="0"
   inkscape:pageshadow="2"
   inkscape:window-width="1463"
   inkscape:window-height="824"
   id="namedview27"
   showgrid="false"
   inkscape:zoom="7.254842"
   inkscape:cx="54.160156"
   inkscape:cy="11.799821"
   inkscape:window-x="2179"
   inkscape:window-y="63"
   inkscape:window-maximized="0"
   inkscape:current-layer="g12" /><defs
   id="defs47" />

<g
   id="g14"
   transform="translate(0,-422.47)">
</g>
<g
   id="g16"
   transform="translate(0,-422.47)">
</g>
<g
   id="g18"
   transform="translate(0,-422.47)">
</g>
<g
   id="g20"
   transform="translate(0,-422.47)">
</g>
<g
   id="g22"
   transform="translate(0,-422.47)">
</g>
<g
   id="g24"
   transform="translate(0,-422.47)">
</g>
<g
   id="g26"
   transform="translate(0,-422.47)">
</g>
<g
   id="g28"
   transform="translate(0,-422.47)">
</g>
<g
   id="g30"
   transform="translate(0,-422.47)">
</g>
<g
   id="g32"
   transform="translate(0,-422.47)">
</g>
<g
   id="g34"
   transform="translate(0,-422.47)">
</g>
<g
   id="g36"
   transform="translate(0,-422.47)">
</g>
<g
   id="g38"
   transform="translate(0,-422.47)">
</g>
<g
   id="g40"
   transform="translate(0,-422.47)">
</g>
<g
   id="g42"
   transform="translate(0,-422.47)">
</g>
<ellipse
   id="path29"
   cx="16.423164"
   cy="16.399452"
   rx="16.130768"
   ry="16.258589"
   style="fill:#000000;stroke-width:0.82700747" /><g
   inkscape:groupmode="layer"
   id="layer1"
   inkscape:label="Layer 1"><g
     id="g12"
     transform="matrix(0.04788221,0,0,0.05308904,5.5866156,3.971248)"
     style="fill:#ffffff">
	<circle
   cx="99.019104"
   cy="36.581436"
   r="35.493999"
   id="circle2"
   style="fill:#ffffff" />
	<polygon
   points="324.261,444.734 432.902,444.734 432.902,279.306 451.5,279.306 451.5,110.764 305.663,110.764 305.663,279.306 324.261,279.306 "
   id="polygon4"
   style="fill:#ffffff"
   transform="matrix(1.0714642,0,0,1.0714642,-40.111478,-31.782526)" />
	<circle
   cx="365.35089"
   cy="35.505981"
   r="35.493999"
   id="circle6"
   style="fill:#ffffff" />
	<polygon
   points="41.628,444.734 111.628,444.734 111.628,330.323 149.755,330.323 122.713,171.255 132.713,111.255 20.542,111.255 30.542,171.255 3.5,330.323 41.628,330.323 "
   id="polygon8"
   style="fill:#ffffff"
   transform="matrix(1.0798273,0,0,1.0798273,15.256359,-33.666022)" />
	<rect
   x="212.709"
   width="30"
   height="455"
   id="rect10"
   y="0"
   style="fill:#ffffff" />
</g></g></svg>